HIERARCHY
ROOT Hips
{
	OFFSET -3.958830 18.904000 13.208200
	CHANNELS 6 Xposition Yposition Zposition Zrotation Yrotation Xrotation 
	JOINT LHipJoint
	{
		OFFSET 0.000000 0.000000 0.000000
		CHANNELS 3 Zrotation Yrotation Xrotation
		JOINT LeftUpLeg
		{
			OFFSET 1.800000 -1.400000 0.085000
			CHANNELS 3 Zrotation Yrotation Xrotation
			JOINT LeftLeg
			{
				OFFSET 2.215000 -6.000000 0.000000
				CHANNELS 3 Zrotation Yrotation Xrotation
				JOINT LeftFoot
				{
					OFFSET 2.500000 -6.900000 0.000000
					CHANNELS 3 Zrotation Yrotation Xrotation
					JOINT LeftToeBase
					{
						OFFSET 0.200000 -0.500000 1.950000
						CHANNELS 3 Zrotation Yrotation Xrotation
						End Site
						{
							OFFSET 0.000000 0.000000 0.000000
						}
					}
				}
			}
		}
	}
	JOINT RHipJoint
	{
		OFFSET 0.000000 0.000000 0.000000
		CHANNELS 3 Zrotation Yrotation Xrotation
		JOINT RightUpLeg
		{
			OFFSET -1.800000 -1.400000 0.085000
			CHANNELS 3 Zrotation Yrotation Xrotation
			JOINT RightLeg
			{
				OFFSET -2.215000 -6.000000 0.000000
				CHANNELS 3 Zrotation Yrotation Xrotation
				JOINT RightFoot
				{
					OFFSET -2.500000 -6.900000 0.000000
					CHANNELS 3 Zrotation Yrotation Xrotation
					JOINT RightToeBase
					{
						OFFSET -0.200000 -0.500000 1.950000
						CHANNELS 3 Zrotation Yrotation Xrotation
						End Site
						{
							OFFSET 0.000000 0.000000 0.000000
						}
					}
				}
			}
		}
	}
	JOINT LowerBack
	{
		OFFSET 0.000000 0.000000 0.000000
		CHANNELS 3 Zrotation Yrotation Xrotation
		JOINT Spine
		{
			OFFSET -0.087000 1.940000 -0.288900
			CHANNELS 3 Zrotation Yrotation Xrotation
			JOINT Spine1
			{
				OFFSET 0.000000 1.950000 0.060000
				CHANNELS 3 Zrotation Yrotation Xrotation
				JOINT Neck
				{
					OFFSET 0.000000 0.000000 0.000000
					CHANNELS 3 Zrotation Yrotation Xrotation
					JOINT Neck1
					{
						OFFSET 0.000000 1.600000 0.340000
						CHANNELS 3 Zrotation Yrotation Xrotation
						JOINT Head
						{
							OFFSET 0.000000 1.667000 -0.240000
							CHANNELS 3 Zrotation Yrotation Xrotation
							End Site
							{
								OFFSET 0.000000 0.000000 0.000000
							}
						}
					}
				}
				JOINT LeftShoulder
				{
					OFFSET 0.000000 0.000000 0.000000
					CHANNELS 3 Zrotation Yrotation Xrotation
					JOINT LeftArm
					{
						OFFSET 2.700000 1.550000 -0.730000
						CHANNELS 3 Zrotation Yrotation Xrotation
						JOINT LeftForeArm
						{
							OFFSET 5.450000 0.000000 0.000000
							CHANNELS 3 Zrotation Yrotation Xrotation
							JOINT LeftHand
							{
								OFFSET 3.450000 0.000000 0.000000
								CHANNELS 3 Zrotation Yrotation Xrotation
								JOINT LeftHandIndex1
								{
									OFFSET 0.750000 0.000000 0.000000
									CHANNELS 3 Zrotation Yrotation Xrotation
									End Site
									{
										OFFSET 0.000000 0.000000 0.000000
									}
								}
							}
						}
					}
				}
				JOINT RightShoulder
				{
					OFFSET 0.000000 0.000000 0.000000
					CHANNELS 3 Zrotation Yrotation Xrotation
					JOINT RightArm
					{
						OFFSET -2.700000 1.550000 -0.730000
						CHANNELS 3 Zrotation Yrotation Xrotation
						JOINT RightForeArm
						{
							OFFSET -5.450000 0.000000 0.000000
							CHANNELS 3 Zrotation Yrotation Xrotation
							JOINT RightHand
							{
								OFFSET -3.450000 0.000000 0.000000
								CHANNELS 3 Zrotation Yrotation Xrotation
								JOINT RightHandIndex1
								{
									OFFSET -0.750000 0.000000 0.000000
									CHANNELS 3 Zrotation Yrotation Xrotation
									End Site
									{
										OFFSET 0.000000 0.000000 0.000000
									}
								}
							}
						}
					}
				}
			}
		}
	}
}
MOTION
Frames: 13
Frame Time: 0.016667
1.505890 12.687740 -2.354230 -56.569043 22.281672 -43.869356 -15.552970 13.241022 4.823777 -9.843946 -8.280286 -20.791595 -19.416276 12.421826 29.027660 -0.017137 7.200034 2.201194 0.117510 -0.450880 0.312500 17.881551 -10.485270 2.228604 -3.035410 4.944702 -18.258240 -34.700131 9.330848 43.088535 -1.328215 -7.578904 1.887934 -0.250070 0.374530 0.218100 -2.659528 -3.289318 -8.178649 4.208263 3.374584 57.564077 -0.535421 5.033809 14.323949 1.914450 7.640383 -18.407000 10.324637 -8.992425 40.592197 11.546550 -8.455470 -18.209610 -17.840944 -35.136141 12.023587 -17.396915 -12.026335 2.543049 -4.345734 3.697148 -1.437474 -3.840599 2.233960 1.015860 -0.016670 0.051380 0.068230 12.618213 33.172748 13.886602 10.999699 5.676688 -17.070214 -124.147967 59.255847 -120.662602 2.120016 -0.843178 -0.471750 0.420580 0.198300 -0.296810 
1.498040 12.695660 -2.333480 -55.794580 22.199635 -43.828103 -15.594931 13.263701 4.785930 -10.118706 -7.960662 -20.337187 -20.285192 12.520658 27.856125 -0.032614 7.145013 2.232372 0.117250 -0.455780 0.337310 17.860135 -10.312811 2.343862 -2.453592 5.726743 -17.710520 -38.554257 11.288753 42.979638 -1.527517 -8.077468 1.745231 -0.257990 0.368730 0.214570 -2.539146 -3.566777 -8.218573 2.663822 4.580462 57.892351 0.293773 5.533883 13.729100 1.748070 7.556086 -18.277200 10.144989 -8.305183 41.582109 12.242250 -7.299180 -20.043610 -17.332038 -34.541748 11.955838 -18.304461 -11.965082 2.527807 -4.058196 3.194209 -1.401115 -3.818036 2.199459 1.076640 -0.039810 0.089280 0.070250 12.593310 32.707066 13.679875 11.877979 4.735329 -17.993112 -118.114026 60.571669 -110.954895 2.252987 -0.132636 -0.496900 0.453450 0.192830 -0.313230 
1.496120 12.559110 -2.348670 -62.061634 22.911731 -43.558705 -15.367558 12.581038 4.771462 -10.290985 -9.334995 -24.274957 -16.530488 10.941430 29.898702 -0.134658 6.694363 2.430281 0.126240 -0.402410 0.225250 18.165222 -10.421637 2.606524 0.208749 5.550487 -22.403165 -36.891523 10.347278 46.474898 -1.541017 -8.424665 1.686978 -0.217790 0.476470 0.163740 -3.418405 -2.150509 -8.452818 12.582933 -3.197529 53.922927 -3.909529 1.402071 13.863020 2.373842 4.642692 -17.120696 4.770675 -6.660877 39.648930 14.057880 -9.109000 -18.173120 -15.005735 -32.806693 11.305068 -21.733546 -13.280480 2.925099 -3.431440 1.920805 -1.154119 -3.798274 2.296974 0.979250 0.001430 0.009860 0.163030 9.328251 30.395266 13.223321 13.796977 4.183658 -17.064998 -118.780047 62.907048 -115.210884 2.153401 -0.489294 -0.497740 0.514180 0.168640 -0.227930 
1.472020 12.538810 -2.348130 -64.418040 22.252465 -44.168025 -15.296514 12.405462 4.654268 -9.637122 -9.103776 -25.516425 -15.592866 10.760454 30.775421 0.001860 6.542454 2.453439 0.196280 -0.293110 0.205360 18.268046 -10.300834 2.867354 1.250444 6.600630 -25.784050 -33.070796 9.242449 50.780860 -1.569211 -8.556284 1.634600 -0.225500 0.414440 0.198010 -3.680337 -1.852103 -8.579737 15.686474 -5.114368 53.322277 -4.968540 0.599822 12.714195 2.280299 3.400035 -17.741846 2.189932 -5.173087 41.181137 16.367200 -9.794820 -14.979300 -13.008090 -32.965648 11.878904 -23.516543 -13.014340 3.116659 -4.309770 1.885603 -1.015620 -3.687276 2.488233 0.910040 -0.031620 0.056690 0.222380 7.622906 30.964769 13.651231 13.085848 2.223070 -17.255357 -127.726210 65.075418 -130.561818 1.932729 -1.487178 -0.366510 0.389750 0.077040 -0.162310 
1.443230 12.563180 -2.367290 -66.603973 22.165961 -45.873334 -15.277664 12.383958 4.594416 -9.929825 -9.017212 -26.172938 -12.469176 10.173780 33.057611 0.065769 6.408331 2.500433 0.216920 -0.258960 0.262640 18.287180 -10.237815 3.022113 0.170133 7.272274 -28.905744 -24.917914 5.273231 56.089083 -1.504489 -8.305637 1.712116 -0.273450 0.322770 0.201790 -3.743386 -1.749289 -8.655085 17.627473 -6.380743 55.329056 -5.870481 0.415751 9.872624 2.377465 5.005247 -18.430319 4.771273 -6.207359 44.474656 15.309670 -9.464740 -14.721130 -12.404881 -33.722210 12.626339 -23.983468 -12.589780 3.026519 -4.482385 1.742241 -0.906210 -3.580335 2.475626 0.951570 -0.085000 0.160730 0.246450 6.531688 30.537743 13.212289 13.109998 1.286547 -17.939043 -136.325306 67.925999 -141.868906 1.809090 -1.783449 -0.315610 0.354350 -0.006740 -0.162080 
1.468140 12.556780 -2.381450 -65.587662 18.750484 -46.816835 -15.205052 12.356084 4.347871 -8.661910 -7.846445 -25.576788 -12.697785 10.462762 32.696477 0.108403 6.365178 2.465772 0.245830 -0.228750 0.325560 18.330267 -10.222205 3.266480 -3.316172 8.931251 -30.687618 -12.522983 -1.434745 57.732852 -1.285488 -7.744996 1.831080 -0.292840 0.209790 0.223950 -3.878613 -1.318971 -8.681039 19.690506 -6.676863 57.506070 -8.492397 1.349974 8.996681 3.234008 6.415314 -18.991816 7.500568 -7.368882 46.142348 11.714610 -8.645740 -13.930940 -13.552207 -34.284736 13.356539 -22.373226 -10.717293 2.540223 -4.712610 1.335305 -0.901842 -3.517559 2.522889 0.939300 -0.121960 0.210350 0.208780 5.669186 30.954119 12.545803 10.530020 1.140847 -18.683146 -143.094847 71.064294 -150.915249 1.695374 -1.994599 -0.244080 0.268140 -0.035220 -0.181050 
1.488190 12.539100 -2.442890 -63.661397 16.396017 -47.402081 -15.151363 12.179716 4.111173 -11.316103 -7.068817 -25.284558 -7.069155 8.572026 32.646898 -0.118829 5.732208 2.753149 0.193110 -0.270860 0.306210 18.420568 -10.044826 3.662445 -7.426424 10.888197 -33.020287 -2.455216 -6.940675 58.864186 -1.310186 -8.127970 1.741990 -0.292860 0.341740 0.209650 -4.059450 -0.900132 -8.723395 20.578808 -6.714674 59.586344 -10.579375 1.326468 9.671050 4.102458 6.672930 -17.847300 8.502809 -6.698397 46.177802 10.407110 -6.782140 -17.519070 -13.940952 -33.776313 13.390741 -20.911440 -10.252736 2.441138 -4.427282 0.767073 -0.982883 -3.598051 2.336232 0.974370 -0.067090 0.199290 0.226310 4.337071 30.666872 10.259753 5.805435 4.719488 -19.064575 -148.025436 74.760788 -156.213791 1.610537 -1.886147 -0.329130 0.449540 0.022810 -0.171000 
1.476450 12.476540 -2.445560 -62.470769 14.884987 -45.328186 -15.115419 11.415656 4.049737 -13.625789 -7.958275 -28.194213 -3.147243 7.074735 33.078663 -0.315433 5.379802 2.879768 0.167860 -0.305520 0.257880 18.609351 -9.310324 4.477472 -16.460056 12.905020 -38.506048 14.654396 -16.548750 57.621744 -1.600137 -9.800762 1.198902 -0.248230 0.439210 0.206490 -4.329121 -0.477640 -9.105956 22.348820 -7.074110 57.021634 -12.906198 0.994957 10.165324 5.149159 5.879369 -16.616950 7.593157 -4.845109 46.452000 8.950670 -5.797710 -15.745010 -14.822826 -32.555896 13.276341 -20.261616 -9.867507 2.794597 -4.648123 1.395658 -1.119576 -3.700328 2.305470 0.953100 0.002340 0.122870 0.223790 3.303676 30.290156 7.828371 1.062326 9.837633 -17.307537 -151.852247 77.157258 -158.064903 1.623608 -1.802579 -0.393990 0.516220 0.095010 -0.174990 
1.448740 12.447220 -2.451390 -60.165758 13.323023 -43.005856 -15.117927 10.647623 3.968851 -15.930404 -8.634084 -30.368379 -0.582400 5.800410 31.204402 -0.417264 4.660798 3.103038 0.272190 -0.161440 0.276870 18.779033 -8.387232 5.477234 -25.891636 14.337689 -43.217659 34.756958 -25.348470 52.321763 -2.148040 -11.490507 0.716041 -0.151050 0.395750 0.201350 -4.486558 -0.351087 -9.551714 22.148374 -6.075451 55.203580 -14.517245 1.161686 10.215799 6.063781 4.918594 -15.901995 6.348001 -2.441929 48.150559 8.278950 -4.317240 -12.747230 -15.541265 -31.866981 13.650690 -19.958111 -9.006059 2.966881 -3.974822 2.578202 -1.110723 -3.666197 2.437764 0.888590 -0.000700 0.117990 0.262860 2.354327 31.023559 5.252424 -3.664158 14.509042 -15.911976 -161.694367 80.116364 -166.492655 1.664753 -1.820498 -0.346090 0.458510 0.028530 -0.157070 
1.470800 12.404060 -2.459830 -59.125165 11.552101 -42.251224 -15.081665 10.053332 3.940971 -16.021199 -9.532253 -33.036187 0.797970 5.409080 32.160257 -0.510817 4.744680 3.007894 0.288330 -0.178960 0.256410 18.936230 -7.812772 6.114285 -34.017341 13.610181 -44.662446 57.549835 -30.343089 40.818916 -2.409241 -11.688038 0.648845 -0.127150 0.406510 0.278580 -4.692544 -0.127785 -9.827408 23.907229 -7.121233 53.995593 -16.844634 0.677350 11.970059 7.254461 3.963224 -15.473667 4.709160 -1.422420 48.935015 7.699170 -4.751440 -12.932010 -15.727724 -31.040734 13.519832 -20.282284 -8.332859 3.044714 -2.756520 3.021126 -1.223555 -3.747077 2.520339 0.883560 0.026760 0.080220 0.215580 0.322713 30.645278 4.329296 -7.733486 19.048348 -12.413450 -129.223693 78.373433 -131.700783 1.881330 -1.752376 -0.324810 0.401390 0.112090 -0.171310 
1.417460 12.401810 -2.429150 -57.291619 11.278449 -40.501510 -15.175178 9.561335 4.255410 -16.447452 -11.461734 -37.445768 0.925360 5.523732 33.229042 -0.401223 4.778295 2.928533 0.301930 -0.156900 0.202430 18.955378 -7.181704 6.489765 -40.309134 10.719269 -45.038698 81.106843 -32.025384 28.685197 -2.524489 -11.292863 0.804491 -0.141420 0.369520 0.302570 -4.532135 -0.508953 -10.218218 21.530117 -5.632127 52.491871 -16.914861 1.036210 11.743117 7.760157 3.560949 -17.526984 4.117761 0.633886 53.153812 9.016590 -4.522570 -5.227440 -14.655448 -32.700433 15.509596 -22.912155 -4.936822 2.669193 -0.157340 2.309518 -0.939822 -3.682058 2.737397 0.806530 0.036370 0.061940 0.231490 -1.895956 33.812894 4.133587 -11.005847 21.792960 -9.456925 -120.233293 74.683907 -118.978514 2.098911 -1.315057 -0.243860 0.257220 0.089400 -0.142660 
1.368950 12.348820 -2.364560 -53.565947 10.189889 -37.875515 -15.337759 8.884404 4.881384 -18.364161 -14.343778 -44.305214 4.507828 5.112333 37.987959 -0.239690 5.441788 2.693746 0.266390 -0.180130 0.163880 18.948031 -6.444616 6.750456 -45.227432 8.071167 -45.178852 97.389894 -28.260317 18.704458 -2.490730 -10.621151 1.052015 -0.159690 0.418390 0.296500 -4.223231 -0.839586 -10.649525 17.389734 -2.773509 50.550493 -16.271899 2.258114 11.448256 8.653324 3.070671 -17.954123 3.893542 1.933422 54.630212 8.433550 -3.464040 -1.992450 -12.187105 -32.750941 16.743898 -27.878771 -2.895774 2.289001 3.350651 1.031397 -0.673680 -3.690416 2.802550 0.765840 0.075210 0.039560 0.249630 -5.935603 35.639503 2.759183 -11.784112 24.690031 -7.423427 -108.621734 70.581154 -93.283083 2.049923 1.546444 -0.246900 0.271280 0.098490 -0.120450 
1.316620 12.311800 -2.289630 -49.305332 8.097488 -35.823763 -15.519165 8.299127 5.376803 -21.268391 -16.466548 -51.110021 12.303571 3.125157 42.313809 -0.147919 6.193903 2.397846 0.202480 -0.240660 0.139780 18.908697 -5.699416 7.053802 -48.038890 7.314159 -44.736308 107.320440 -20.714726 11.414751 -2.310117 -9.727767 1.315411 -0.159460 0.450370 0.262930 -3.860730 -1.042544 -10.990186 13.366161 1.136962 48.882985 -14.975587 4.772621 10.820591 9.669213 2.460285 -16.580194 3.959035 2.487750 55.425639 7.161250 -2.545120 -1.073960 -10.761139 -31.874594 17.386741 -32.534721 -2.583439 1.689879 9.894064 -1.060196 -0.699088 -3.737774 2.845233 0.740500 0.109730 -0.015870 0.196830 -8.962672 36.940571 -0.787570 -12.466719 27.828022 -11.536136 -98.496933 73.459347 -69.948642 1.088407 2.631948 -0.296000 0.301310 0.161000 -0.140830 
